<svg xmlns="http://www.w3.org/2000/svg" xmlns:xlink="http://www.w3.org/1999/xlink" width="708" zoomAndPan="magnify" viewBox="0 0 531 306.749988" height="409" preserveAspectRatio="xMidYMid meet" version="1.0"><defs><g/><clipPath id="id1"><path d="M 75.15625 75.371094 L 126 75.371094 L 126 127 L 75.15625 127 Z M 75.15625 75.371094 " clip-rule="nonzero"/></clipPath><clipPath id="id2"><path d="M 170 167 L 213.792969 167 L 213.792969 211 L 170 211 Z M 170 167 " clip-rule="nonzero"/></clipPath></defs><g clip-path="url(#id1)"><path fill="#ffbd59" d="M 100.410156 126.21875 C 114.382812 126.21875 125.753906 114.851562 125.753906 100.886719 C 125.753906 86.917969 114.382812 75.550781 100.410156 75.550781 C 86.4375 75.550781 75.066406 86.917969 75.066406 100.886719 C 75.066406 114.851562 86.4375 126.21875 100.410156 126.21875 Z M 100.410156 82.542969 C 110.527344 82.542969 118.761719 90.769531 118.761719 100.886719 C 118.761719 111 110.53125 119.226562 100.410156 119.226562 C 90.292969 119.226562 82.0625 111 82.0625 100.886719 C 82.0625 90.769531 90.292969 82.542969 100.410156 82.542969 Z M 100.410156 82.542969 " fill-opacity="1" fill-rule="nonzero"/></g><g clip-path="url(#id2)"><path fill="#ffbd59" d="M 191.957031 167.003906 C 179.964844 167.003906 170.207031 176.757812 170.207031 188.746094 C 170.207031 200.730469 179.964844 210.484375 191.957031 210.484375 C 203.949219 210.484375 213.703125 200.730469 213.703125 188.746094 C 213.703125 176.757812 203.949219 167.003906 191.957031 167.003906 Z M 191.957031 203.496094 C 183.820312 203.496094 177.199219 196.878906 177.199219 188.746094 C 177.199219 180.613281 183.820312 173.996094 191.957031 173.996094 C 200.09375 173.996094 206.710938 180.613281 206.710938 188.746094 C 206.710938 196.878906 200.09375 203.496094 191.957031 203.496094 Z M 191.957031 203.496094 " fill-opacity="1" fill-rule="nonzero"/></g><path fill="#00c2cb" d="M 166.988281 111.453125 C 173.457031 111.453125 178.71875 106.191406 178.71875 99.726562 C 178.71875 93.261719 173.457031 88.003906 166.988281 88.003906 C 160.523438 88.003906 155.261719 93.261719 155.261719 99.726562 C 155.261719 106.191406 160.519531 111.453125 166.988281 111.453125 Z M 166.988281 94.992188 C 169.601562 94.992188 171.726562 97.117188 171.726562 99.726562 C 171.726562 102.339844 169.601562 104.460938 166.988281 104.460938 C 164.378906 104.460938 162.253906 102.339844 162.253906 99.726562 C 162.253906 97.117188 164.378906 94.992188 166.988281 94.992188 Z M 166.988281 94.992188 " fill-opacity="1" fill-rule="nonzero"/><path fill="#00c2cb" d="M 105.742188 162.273438 C 105.742188 155.808594 100.480469 150.550781 94.011719 150.550781 C 87.546875 150.550781 82.28125 155.808594 82.28125 162.273438 C 82.28125 168.738281 87.546875 173.996094 94.011719 173.996094 C 100.480469 173.996094 105.742188 168.738281 105.742188 162.273438 Z M 89.277344 162.273438 C 89.277344 159.664062 91.398438 157.539062 94.011719 157.539062 C 96.625 157.539062 98.746094 159.664062 98.746094 162.273438 C 98.746094 164.882812 96.625 167.007812 94.011719 167.007812 C 91.398438 167.007812 89.277344 164.882812 89.277344 162.273438 Z M 89.277344 162.273438 " fill-opacity="1" fill-rule="nonzero"/><path fill="#00c2cb" d="M 100.410156 207.441406 C 93.945312 207.441406 88.679688 212.699219 88.679688 219.164062 C 88.679688 225.628906 93.945312 230.890625 100.410156 230.890625 C 106.878906 230.890625 112.140625 225.628906 112.140625 219.164062 C 112.140625 212.699219 106.878906 207.441406 100.410156 207.441406 Z M 100.410156 223.898438 C 97.796875 223.898438 95.675781 221.773438 95.675781 219.164062 C 95.675781 216.554688 97.796875 214.429688 100.410156 214.429688 C 103.023438 214.429688 105.148438 216.554688 105.148438 219.164062 C 105.148438 221.773438 103.023438 223.898438 100.410156 223.898438 Z M 100.410156 223.898438 " fill-opacity="1" fill-rule="nonzero"/><path fill="#d9d9d9" d="M 173.519531 172.730469 C 174.753906 171.242188 174.546875 169.042969 173.058594 167.8125 L 162.4375 159.019531 C 163.472656 156.917969 164.066406 154.5625 164.066406 152.070312 C 164.066406 146.410156 161.078125 141.453125 156.601562 138.652344 L 163.882812 117.101562 C 164.5 115.273438 163.519531 113.289062 161.6875 112.671875 C 159.855469 112.054688 157.875 113.035156 157.257812 114.863281 L 150.003906 136.335938 C 149.417969 136.269531 148.828125 136.230469 148.222656 136.230469 C 145.238281 136.230469 142.453125 137.074219 140.066406 138.515625 L 126.75 122.179688 C 125.527344 120.683594 123.328125 120.457031 121.832031 121.679688 C 120.332031 122.898438 120.109375 125.097656 121.328125 126.59375 L 135 143.363281 C 133.484375 145.652344 132.566406 148.355469 132.417969 151.265625 L 110.535156 156.089844 C 108.648438 156.503906 107.457031 158.371094 107.875 160.257812 C 108.234375 161.886719 109.679688 163 111.285156 163 C 111.535156 163 111.789062 162.972656 112.042969 162.914062 L 133.601562 158.164062 C 134.566406 160.460938 136.058594 162.484375 137.925781 164.082031 L 108.503906 202.859375 C 107.335938 204.398438 107.636719 206.589844 109.175781 207.757812 C 109.808594 208.234375 110.550781 208.46875 111.285156 208.46875 C 112.34375 208.46875 113.386719 207.992188 114.074219 207.085938 L 144.207031 167.375 C 145.492188 167.710938 146.832031 167.910156 148.222656 167.910156 C 151.9375 167.910156 155.351562 166.617188 158.054688 164.46875 L 168.601562 173.195312 C 169.25 173.738281 170.042969 174 170.828125 174 C 171.832031 173.996094 172.832031 173.566406 173.519531 172.730469 Z M 148.222656 160.917969 C 143.34375 160.917969 139.371094 156.949219 139.371094 152.070312 C 139.371094 147.1875 143.34375 143.21875 148.222656 143.21875 C 153.101562 143.21875 157.074219 147.1875 157.074219 152.070312 C 157.074219 156.949219 153.101562 160.917969 148.222656 160.917969 Z M 148.222656 160.917969 " fill-opacity="1" fill-rule="nonzero"/><g fill="#00c2cb" fill-opacity="0.3412"><g transform="translate(212.297659, 173.847805)"><g><path d="M 10.453125 0 L 25.398438 0 C 35.417969 0 43.453125 -8.640625 43.453125 -18.832031 L 43.453125 -45.007812 C 43.453125 -55.203125 35.507812 -63.84375 25.398438 -63.84375 L 10.453125 -63.84375 C 8.898438 -63.84375 7.34375 -62.632812 7.34375 -60.558594 L 7.34375 -3.28125 C 7.34375 -1.46875 8.726562 0 10.453125 0 Z M 13.5625 -6.480469 L 13.5625 -57.363281 L 25.398438 -57.363281 C 31.617188 -57.363281 37.234375 -51.832031 37.234375 -45.007812 L 37.234375 -18.832031 C 37.234375 -12.265625 31.878906 -6.480469 25.398438 -6.480469 Z M 13.5625 -6.480469 "/></g></g></g><g fill="#00c2cb" fill-opacity="0.3412"><g transform="translate(261.188065, 173.847805)"><g><path d="M 43.195312 -22.03125 C 43.195312 -33.347656 36.109375 -42.589844 24.964844 -42.589844 C 14.339844 -42.589844 6.21875 -34.125 6.21875 -23.929688 L 6.21875 -18.660156 C 6.21875 -8.464844 14.601562 0 24.621094 0 C 32.050781 0 38.960938 -5.011719 40.863281 -9.675781 C 41.121094 -10.28125 41.292969 -11.058594 41.292969 -11.578125 C 41.292969 -13.042969 39.652344 -14.425781 38.011719 -14.425781 C 36.886719 -14.425781 35.9375 -13.648438 35.332031 -12.785156 C 33 -9.589844 30.496094 -6.394531 25.054688 -6.394531 C 18.316406 -6.394531 12.613281 -11.488281 12.613281 -18.402344 L 40 -18.402344 C 41.726562 -18.402344 43.195312 -19.523438 43.195312 -22.03125 Z M 24.878906 -36.195312 C 30.925781 -36.195312 35.765625 -32.222656 36.628906 -24.363281 L 12.613281 -24.363281 C 12.785156 -30.667969 17.710938 -36.195312 24.878906 -36.195312 Z M 24.878906 -36.195312 "/></g></g></g><g fill="#00c2cb" fill-opacity="0.3412"><g transform="translate(310.078472, 173.847805)"><g><path d="M 24.449219 0 C 25.832031 0 26.523438 -0.519531 27.210938 -1.726562 L 42.9375 -39.394531 C 42.9375 -41.035156 41.640625 -42.589844 39.652344 -42.589844 C 38.355469 -42.589844 37.40625 -41.984375 36.800781 -40.691406 L 24.449219 -11.316406 L 12.09375 -40.691406 C 11.488281 -41.984375 10.539062 -42.589844 9.242188 -42.589844 C 7.257812 -42.589844 5.960938 -41.035156 5.960938 -39.394531 L 21.683594 -1.726562 C 22.460938 -0.519531 23.066406 0 24.449219 0 Z M 24.449219 0 "/></g></g></g><g fill="#00c2cb" fill-opacity="0.3412"><g transform="translate(358.968878, 173.847805)"><g><path d="M 6.738281 0 C 8.550781 0 9.933594 -1.46875 9.933594 -3.28125 L 9.933594 -46.476562 L 21.597656 -21.769531 C 22.203125 -20.5625 23.152344 -19.957031 24.449219 -19.957031 C 25.742188 -19.957031 26.695312 -20.5625 27.300781 -21.769531 L 38.960938 -46.476562 L 38.960938 -3.28125 C 38.960938 -1.46875 40.34375 0 42.15625 0 C 43.714844 0 45.269531 -1.210938 45.269531 -3.28125 L 45.269531 -60.644531 C 45.269531 -62.375 43.800781 -63.84375 42.15625 -63.84375 C 40.863281 -63.84375 39.910156 -63.238281 39.308594 -62.027344 L 24.449219 -30.582031 L 9.589844 -62.027344 C 8.984375 -63.238281 8.035156 -63.84375 6.738281 -63.84375 C 5.355469 -63.84375 3.628906 -62.632812 3.628906 -60.644531 L 3.628906 -3.28125 C 3.628906 -1.46875 5.011719 0 6.738281 0 Z M 6.738281 0 "/></g></g></g><g fill="#00c2cb" fill-opacity="0.3412"><g transform="translate(407.859284, 173.847805)"><g><path d="M 25.65625 0 C 32.308594 0 38.703125 -3.800781 41.8125 -9.675781 C 42.15625 -10.195312 42.246094 -10.710938 42.246094 -11.230469 C 42.246094 -12.871094 40.777344 -14.425781 39.132812 -14.425781 C 37.578125 -14.425781 36.285156 -13.042969 35.765625 -11.921875 C 33.433594 -8.464844 29.804688 -6.394531 25.742188 -6.394531 C 19.09375 -6.394531 13.648438 -11.921875 13.648438 -18.660156 L 13.648438 -23.929688 C 13.648438 -30.582031 19.09375 -36.195312 25.742188 -36.195312 C 29.285156 -36.195312 32.742188 -34.554688 34.902344 -31.878906 C 36.109375 -30.410156 36.976562 -28.25 39.046875 -28.25 C 40.777344 -28.25 42.246094 -29.71875 42.246094 -31.359375 C 42.246094 -31.878906 42.070312 -32.394531 41.8125 -32.914062 C 38.703125 -38.789062 32.394531 -42.589844 25.742188 -42.589844 C 15.980469 -42.589844 7.34375 -34.382812 7.34375 -23.929688 L 7.34375 -18.660156 C 7.34375 -8.8125 15.550781 0 25.65625 0 Z M 25.65625 0 "/></g></g></g><g fill="#00c2cb" fill-opacity="1"><g transform="translate(209.854008, 171.404144)"><g><path d="M 10.453125 0 L 25.398438 0 C 35.417969 0 43.453125 -8.640625 43.453125 -18.832031 L 43.453125 -45.007812 C 43.453125 -55.203125 35.507812 -63.84375 25.398438 -63.84375 L 10.453125 -63.84375 C 8.898438 -63.84375 7.34375 -62.632812 7.34375 -60.558594 L 7.34375 -3.28125 C 7.34375 -1.46875 8.726562 0 10.453125 0 Z M 13.5625 -6.480469 L 13.5625 -57.363281 L 25.398438 -57.363281 C 31.617188 -57.363281 37.234375 -51.832031 37.234375 -45.007812 L 37.234375 -18.832031 C 37.234375 -12.265625 31.878906 -6.480469 25.398438 -6.480469 Z M 13.5625 -6.480469 "/></g></g></g><g fill="#00c2cb" fill-opacity="1"><g transform="translate(258.744414, 171.404144)"><g><path d="M 43.195312 -22.03125 C 43.195312 -33.347656 36.109375 -42.589844 24.964844 -42.589844 C 14.339844 -42.589844 6.21875 -34.125 6.21875 -23.929688 L 6.21875 -18.660156 C 6.21875 -8.464844 14.601562 0 24.621094 0 C 32.050781 0 38.960938 -5.011719 40.863281 -9.675781 C 41.121094 -10.28125 41.292969 -11.058594 41.292969 -11.578125 C 41.292969 -13.042969 39.652344 -14.425781 38.011719 -14.425781 C 36.886719 -14.425781 35.9375 -13.648438 35.332031 -12.785156 C 33 -9.589844 30.496094 -6.394531 25.054688 -6.394531 C 18.316406 -6.394531 12.613281 -11.488281 12.613281 -18.402344 L 40 -18.402344 C 41.726562 -18.402344 43.195312 -19.523438 43.195312 -22.03125 Z M 24.878906 -36.195312 C 30.925781 -36.195312 35.765625 -32.222656 36.628906 -24.363281 L 12.613281 -24.363281 C 12.785156 -30.667969 17.710938 -36.195312 24.878906 -36.195312 Z M 24.878906 -36.195312 "/></g></g></g><g fill="#00c2cb" fill-opacity="1"><g transform="translate(307.63482, 171.404144)"><g><path d="M 24.449219 0 C 25.832031 0 26.523438 -0.519531 27.210938 -1.726562 L 42.9375 -39.394531 C 42.9375 -41.035156 41.640625 -42.589844 39.652344 -42.589844 C 38.355469 -42.589844 37.40625 -41.984375 36.800781 -40.691406 L 24.449219 -11.316406 L 12.09375 -40.691406 C 11.488281 -41.984375 10.539062 -42.589844 9.242188 -42.589844 C 7.257812 -42.589844 5.960938 -41.035156 5.960938 -39.394531 L 21.683594 -1.726562 C 22.460938 -0.519531 23.066406 0 24.449219 0 Z M 24.449219 0 "/></g></g></g><g fill="#00c2cb" fill-opacity="1"><g transform="translate(356.525227, 171.404144)"><g><path d="M 6.738281 0 C 8.550781 0 9.933594 -1.46875 9.933594 -3.28125 L 9.933594 -46.476562 L 21.597656 -21.769531 C 22.203125 -20.5625 23.152344 -19.957031 24.449219 -19.957031 C 25.742188 -19.957031 26.695312 -20.5625 27.300781 -21.769531 L 38.960938 -46.476562 L 38.960938 -3.28125 C 38.960938 -1.46875 40.34375 0 42.15625 0 C 43.714844 0 45.269531 -1.210938 45.269531 -3.28125 L 45.269531 -60.644531 C 45.269531 -62.375 43.800781 -63.84375 42.15625 -63.84375 C 40.863281 -63.84375 39.910156 -63.238281 39.308594 -62.027344 L 24.449219 -30.582031 L 9.589844 -62.027344 C 8.984375 -63.238281 8.035156 -63.84375 6.738281 -63.84375 C 5.355469 -63.84375 3.628906 -62.632812 3.628906 -60.644531 L 3.628906 -3.28125 C 3.628906 -1.46875 5.011719 0 6.738281 0 Z M 6.738281 0 "/></g></g></g><g fill="#00c2cb" fill-opacity="1"><g transform="translate(405.415633, 171.404144)"><g><path d="M 25.65625 0 C 32.308594 0 38.703125 -3.800781 41.8125 -9.675781 C 42.15625 -10.195312 42.246094 -10.710938 42.246094 -11.230469 C 42.246094 -12.871094 40.777344 -14.425781 39.132812 -14.425781 C 37.578125 -14.425781 36.285156 -13.042969 35.765625 -11.921875 C 33.433594 -8.464844 29.804688 -6.394531 25.742188 -6.394531 C 19.09375 -6.394531 13.648438 -11.921875 13.648438 -18.660156 L 13.648438 -23.929688 C 13.648438 -30.582031 19.09375 -36.195312 25.742188 -36.195312 C 29.285156 -36.195312 32.742188 -34.554688 34.902344 -31.878906 C 36.109375 -30.410156 36.976562 -28.25 39.046875 -28.25 C 40.777344 -28.25 42.246094 -29.71875 42.246094 -31.359375 C 42.246094 -31.878906 42.070312 -32.394531 41.8125 -32.914062 C 38.703125 -38.789062 32.394531 -42.589844 25.742188 -42.589844 C 15.980469 -42.589844 7.34375 -34.382812 7.34375 -23.929688 L 7.34375 -18.660156 C 7.34375 -8.8125 15.550781 0 25.65625 0 Z M 25.65625 0 "/></g></g></g></svg>